<svg width="16" height="16" viewBox="0 0 16 16" fill="none" xmlns="http://www.w3.org/2000/svg">
<g clip-path="url(#clip0_5302_357)">
<path d="M7.73351 9.58269L1.87965 15.6667C1.77703 15.7728 1.65531 15.8568 1.52143 15.914C1.38756 15.9712 1.24415 16.0004 1.09941 16C0.954661 15.9996 0.81141 15.9696 0.677835 15.9116C0.544259 15.8537 0.422975 15.7689 0.320907 15.6623C0.21884 15.5556 0.137987 15.4291 0.0829684 15.2899C0.0279496 15.1508 -0.000159041 15.0017 0.00024851 14.8513C0.00065606 14.7009 0.029572 14.552 0.0853438 14.4132C0.141116 14.2744 0.222651 14.1483 0.325295 14.0423L6.13905 8.00001L0.325295 1.95775C0.222651 1.85168 0.141116 1.72565 0.0853438 1.58683C0.029572 1.44801 0.00065606 1.29912 0.00024851 1.14869C-0.000159041 0.998253 0.0279496 0.849213 0.0829684 0.710069C0.137987 0.570925 0.21884 0.444411 0.320907 0.337744C0.422975 0.231078 0.544259 0.146349 0.677835 0.0884006C0.81141 0.0304523 0.954661 0.000410768 1.09941 4.18326e-06C1.24415 -0.000402401 1.38756 0.0288329 1.52143 0.0860299C1.65531 0.143227 1.77703 0.227277 1.87965 0.333369L7.73351 6.41733L13.5874 0.333369C13.69 0.227277 13.8117 0.143227 13.9456 0.0860299C14.0795 0.0288329 14.2229 -0.000402401 14.3676 4.18326e-06C14.5124 0.000410768 14.6556 0.0304523 14.7892 0.0884006C14.9228 0.146349 15.0441 0.231078 15.1461 0.337744C15.2482 0.444411 15.329 0.570925 15.3841 0.710069C15.4391 0.849213 15.4672 0.998253 15.4668 1.14869C15.4664 1.29912 15.4375 1.44801 15.3817 1.58683C15.3259 1.72565 15.2444 1.85168 15.1417 1.95775L9.32798 8.00001L15.1417 14.0423C15.2444 14.1483 15.3259 14.2744 15.3817 14.4132C15.4375 14.552 15.4664 14.7009 15.4668 14.8513C15.4672 15.0017 15.4391 15.1508 15.3841 15.2899C15.329 15.4291 15.2482 15.5556 15.1461 15.6623C15.0441 15.7689 14.9228 15.8537 14.7892 15.9116C14.6556 15.9696 14.5124 15.9996 14.3676 16C14.2229 16.0004 14.0795 15.9712 13.9456 15.914C13.8117 15.8568 13.69 15.7728 13.5874 15.6667L7.73351 9.58269Z" fill="#BCBCBF"/>
</g>
<defs>
<clipPath id="clip0_5302_357">
<rect width="16" height="16" fill="white"/>
</clipPath>
</defs>
</svg>
